<svg fill="none" height="48" viewBox="0 0 48 48" width="48" xmlns="http://www.w3.org/2000/svg"><g clip-rule="evenodd" fill="#333" fill-rule="evenodd"><path d="m43 44h-38v-2h38z"/><path d="m24 7c.5523 0 1 .44772 1 1v6c0 .5523-.4477 1-1 1s-1-.4477-1-1v-6c0-.55228.4477-1 1-1z"/><path d="m20 11c0-.5523.4477-1 1-1h6c.5523 0 1 .4477 1 1s-.4477 1-1 1h-6c-.5523 0-1-.4477-1-1z"/><path d="m28 6h-8c-.5523 0-1 .44772-1 1v8c0 .5523.4477 1 1 1h8c.5523 0 1-.4477 1-1v-8c0-.55228-.4477-1-1-1zm-8-2h8c1.6569 0 3 1.34315 3 3v8c0 1.6569-1.3431 3-3 3h-8c-1.6569 0-3-1.3431-3-3v-8c0-1.65685 1.3431-3 3-3z"/><path d="m9 17c0-1.6569 1.3431-3 3-3h5.2593v2h-5.2593c-.5523 0-1 .4477-1 1v25h-2z"/><path d="m39 17c0-1.6569-1.3431-3-3-3h-5.2593v2h5.2593c.5523 0 1 .4477 1 1v25h2z"/><path d="m24 34c-1.1046 0-2 .8954-2 2v7h-2v-7c0-2.2091 1.7909-4 4-4s4 1.7909 4 4v7h-2v-7c0-1.1046-.8954-2-2-2z"/><path d="m18 24v-4h-4v4z"/><path d="m18 30v-4h-4v4z"/><path d="m26 24v-4h-4v4z"/><path d="m26 30v-4h-4v4z"/><path d="m34 24v-4h-4v4z"/><path d="m34 30v-4h-4v4z"/></g></svg>