<svg viewBox="0 0 128 128" xmlns="http://www.w3.org/2000/svg"><path d="m122 104h-116a6 6 0 0 1 -6-6v-84a6 6 0 0 1 6-6h116a6 6 0 0 1 6 6v84a6 6 0 0 1 -6 6zm-116-92a2 2 0 0 0 -2 2v84a2 2 0 0 0 2 2h116a2 2 0 0 0 2-2v-84a2 2 0 0 0 -2-2z"/><path d="m97 120h-66a2 2 0 0 1 0-4h66a2 2 0 0 1 0 4z"/><path d="m64 120a2 2 0 0 1 -2-2v-16a2 2 0 0 1 4 0v16a2 2 0 0 1 -2 2z"/><path d="m81.33 29.3c-2.91-2.1-5.25-2.76-7-2-1 .47-3.5 1.61-3.82 12.55a12.21 12.21 0 0 0 -4.51-1.62v-16.73a2 2 0 0 0 -4 0v16.72a12.3 12.3 0 0 0 -4.55 1.62c-.32-10.91-2.78-12.05-3.82-12.52-1.71-.78-4.05-.12-7 2-10.16 7.33-25.14 30.05-21.93 59.68a3.28 3.28 0 0 0 3.11 3 3.86 3.86 0 0 0 .6 0c6.38 0 22-9.92 25.17-18.83 1.76-5 3.31-15.35 3.77-25.16 0-.95.07-1.84.09-2.7l.09-.12c1.13-1.9 3.67-3.14 6.46-3.14s5.44 1.28 6.53 3.25v.05c0 .85 0 1.72.09 2.66.46 9.81 2 20.16 3.77 25.16 3.17 8.91 18.83 18.83 25.21 18.83a3.86 3.86 0 0 0 .6 0 3.28 3.28 0 0 0 3.11-3c3.21-29.63-11.77-52.35-21.97-59.7zm-31.52 42.55c-2.76 7.84-17.32 16.15-21.15 16.15h-.05c-2.35-23.43 7-42.29 16.65-52.18 3.74-3.82 6.06-4.72 6.74-4.82 2.83 3.19 1.41 30.58-2.19 40.85zm49.58 16.15c-3.78 0-18.43-8.31-21.2-16.18-3.6-10.24-5.02-37.63-2.19-40.82.66.09 3 1 6.73 4.84 9.63 9.9 19.01 28.76 16.66 52.16z"/></svg>